<svg height="512pt" viewBox="0 0 512 512" width="512pt" xmlns="http://www.w3.org/2000/svg"><path d="m456.835938 337.398438h-401.671876c-30.417968 0-55.164062 24.75-55.164062 55.167968v64.269532c0 30.417968 24.746094 55.164062 55.164062 55.164062h401.671876c30.417968 0 55.164062-24.746094 55.164062-55.164062v-64.269532c0-30.417968-24.746094-55.167968-55.164062-55.167968zm0 0"/><path d="m347.539062 307.398438h109.296876c4.5 0 8.921874.359374 13.234374 1.035156-6.160156-20.28125-27.765624-35.300782-53.40625-35.300782h-16.0625c-25.199218 0-46.492187 14.515626-53.0625 34.265626zm0 0"/><path d="m256 222.800781c61.425781 0 111.398438-49.976562 111.398438-111.398437 0-61.429688-49.972657-111.402344-111.398438-111.402344s-111.398438 49.972656-111.398438 111.398438c0 61.425781 49.972657 111.402343 111.398438 111.402343zm0 0"/><path d="m200.835938 241.59375v65.804688h110.328124v-65.808594c-16.957031 7.214844-35.601562 11.210937-55.164062 11.210937s-38.207031-3.996093-55.164062-11.207031zm0 0"/></svg>