<?xml version="1.0" encoding="utf-8"?>
<!-- Generator: Adobe Illustrator 22.0.0, SVG Export Plug-In . SVG Version: 6.00 Build 0)  -->
<svg version="1.1" id="Capa_1" xmlns="http://www.w3.org/2000/svg" xmlns:xlink="http://www.w3.org/1999/xlink" x="0px" y="0px"
	 viewBox="0 0 98 98" style="enable-background:new 0 0 98 98;" xml:space="preserve">
<path d="M97.1,31.7c-0.6-0.4-1.4-0.5-2.1-0.2l-11.5,5.2c-10.9-10-24.9-15.5-39.6-15.5c-16.6,0-32.5,7.1-43.6,19.4
	c-0.4,0.4-0.6,1-0.5,1.6c0,0.6,0.3,1.1,0.7,1.5l12,10.4c0.9,0.8,2.2,0.7,3-0.2c7.3-8,17.7-12.5,28.5-12.5c6.5,0,13,1.7,18.7,4.9
	L54.2,50c-0.7,0.3-1.2,1-1.2,1.7c-0.1,0.8,0.3,1.5,0.9,1.9l36.4,26c0.4,0.3,0.8,0.4,1.2,0.4c0.3,0,0.6-0.1,0.9-0.2
	c0.7-0.3,1.2-1,1.2-1.7L98,33.6C98.1,32.9,97.7,32.1,97.1,31.7z"/>
<path d="M-199.4,52.9c-0.8-0.7-2.1-0.6-2.8,0.2c-6.9,7.5-16.6,11.8-26.8,11.8c-6.1,0-12.2-1.6-17.6-4.6l7.8-3.6
	c0.6-0.3,1.1-0.9,1.2-1.6c0.1-0.7-0.2-1.4-0.8-1.8l-34.3-24.5c-0.6-0.4-1.3-0.5-2-0.2c-0.6,0.3-1.1,0.9-1.2,1.6l-4.1,42
	c-0.1,0.7,0.2,1.4,0.8,1.8c0.6,0.4,1.3,0.5,2,0.2l10.8-4.9c10.2,9.4,23.5,14.6,37.4,14.6c15.6,0,30.6-6.7,41.1-18.3
	c0.4-0.4,0.5-0.9,0.5-1.5c0-0.5-0.3-1-0.7-1.4L-199.4,52.9z"/>
</svg>
